<svg width="362" height="363" xmlns="http://www.w3.org/2000/svg" xmlns:xlink="http://www.w3.org/1999/xlink" xml:space="preserve" overflow="hidden"><g transform="translate(-867 -286)"><path d="M222.856 231.529C222.856 231.906 222.479 232.283 222.479 232.283 222.479 233.037 223.233 233.792 224.365 233.792L235.677 233.792C235.3 232.283 235.3 230.775 236.054 229.644L246.235 213.429 241.71 205.887C241.71 205.51 241.333 205.51 241.333 205.51 240.579 205.133 239.448 205.133 239.071 205.887L222.856 231.529 222.856 231.529Z" fill="#8ED2F4" transform="matrix(1 0 0 1.00276 867 286)"/><path d="M239.825 233.415C240.202 233.792 240.579 234.169 241.333 234.169L292.617 234.169C293.371 234.169 293.748 233.792 294.125 233.415 294.502 233.037 294.502 232.283 294.125 231.529L268.86 190.05C268.483 189.673 268.106 189.296 267.352 189.296 267.352 189.296 267.352 189.296 266.975 189.296 266.975 189.296 266.975 189.296 266.598 189.296 266.221 189.296 265.467 189.673 265.09 190.05L239.825 231.529C239.825 232.283 239.825 232.66 239.825 233.415ZM256.794 213.429 266.975 196.837 277.533 213.806 270.746 209.658 266.598 213.429 262.45 209.658 256.794 213.429Z" fill="#8ED2F4" transform="matrix(1 0 0 1.00276 867 286)"/><path d="M285.829 192.312C285.829 194.187 284.31 195.706 282.435 195.706 280.561 195.706 279.042 194.187 279.042 192.312 279.042 190.438 280.561 188.919 282.435 188.919 284.31 188.919 285.829 190.438 285.829 192.312Z" fill="#8ED2F4" transform="matrix(1 0 0 1.00276 867 286)"/><path d="M218.708 184.771 297.896 184.771 297.896 237.562 218.708 237.562 218.708 184.771ZM207.396 248.875 309.208 248.875 309.208 173.458 207.396 173.458 207.396 248.875Z" fill="#8ED2F4" transform="matrix(1 0 0 1.00276 867 286)"/><path d="M82.9583 143.292 309.208 143.292 309.208 158.375 82.9583 158.375Z" fill="#8ED2F4" transform="matrix(1 0 0 1.00276 867 286)"/><path d="M192.312 203.625 107.092 203.625 120.667 217.2 121.421 218.708 192.312 218.708Z" fill="#8ED2F4" transform="matrix(1 0 0 1.00276 867 286)"/><path d="M82.9583 173.458 82.9583 179.115 92.3854 188.542 192.312 188.542 192.312 173.458Z" fill="#8ED2F4" transform="matrix(1 0 0 1.00276 867 286)"/><path d="M131.225 248.875 192.312 248.875 192.312 233.792 126.323 233.792Z" fill="#8ED2F4" transform="matrix(1 0 0 1.00276 867 286)"/><path d="M105.583 226.25 109.731 239.448 107.469 241.71 94.2708 237.562 94.2708 237.562C91.2542 234.546 91.2542 229.644 94.2708 226.627 97.2875 223.61 102.19 223.233 105.583 226.25ZM24.5104 176.098 91.2542 242.842 120.667 252.646 110.862 223.233 44.1187 156.49 24.5104 176.098Z" fill="#8ED2F4" transform="matrix(1 0 0 1.00276 867 286)"/><path d="M9.05 152.719C6.7875 154.981 7.16458 158.752 9.42708 161.015L20.3625 171.95 39.9708 152.342 29.0354 141.406 29.0354 141.406C26.7729 139.144 22.625 139.144 20.3625 141.406L9.42708 152.342C9.05 152.342 9.05 152.719 9.05 152.719Z" fill="#8ED2F4" transform="matrix(1 0 0 1.00276 867 286)"/><path d="M45.25 64.1042 45.25 141.406 67.875 164.031 67.875 124.438 324.292 124.438 324.292 275.271 67.875 275.271 67.875 235.677 45.25 213.052 45.25 297.896 346.917 297.896 346.917 64.1042 45.25 64.1042ZM86.7292 101.812C82.5812 101.812 79.1875 98.4187 79.1875 94.2708 79.1875 90.1229 82.5812 86.7292 86.7292 86.7292 90.8771 86.7292 94.2708 90.1229 94.2708 94.2708 94.2708 98.4187 90.8771 101.812 86.7292 101.812ZM113.125 101.812C108.977 101.812 105.583 98.4187 105.583 94.2708 105.583 90.1229 108.977 86.7292 113.125 86.7292 117.273 86.7292 120.667 90.1229 120.667 94.2708 120.667 98.4187 117.273 101.812 113.125 101.812ZM139.521 101.812C135.373 101.812 131.979 98.4187 131.979 94.2708 131.979 90.1229 135.373 86.7292 139.521 86.7292 143.669 86.7292 147.062 90.1229 147.062 94.2708 147.062 98.4187 143.669 101.812 139.521 101.812Z" fill="#8ED2F4" transform="matrix(1 0 0 1.00276 867 286)"/></g></svg>